# xmcd CD database file
#
# Track frame offsets:
#	150
#	12718
#	30286
#	44599
#	60089
#	76912
#	90072
#	114160
#	126169
#	139738
#	155546
#	169095
#
# Disc length: 2439 seconds
#
# Revision: 1
# Processed by: cddbd v1.5.2PL0 Copyright (c) Steve Scherf et al.
# Submitted via: CDex 1.70beta2
#
DISCID=8509850c
DTITLE=Todd Rundgren - Todd Rundgren's Johnson
DYEAR=2011
DGENRE=Blues
TTITLE0=Dust My Broom
TTITLE1=Stop Breakin Down
TTITLE2=Kindhearted Woman Blues
TTITLE3=Walking Blues
TTITLE4=Love In Vain
TTITLE5=Last Fair Deal Gone Down
TTITLE6=Sweet Home Chicago
TTITLE7=They're Red Hot
TTITLE8=Come On In My Kitchen
TTITLE9=Hellhound On My Trail
TTITLE10=Traveling Riverside Blues
TTITLE11=Crossroads Blues
EXTD=YEAR: 2011
EXTT0=
EXTT1=
EXTT2=
EXTT3=
EXTT4=
EXTT5=
EXTT6=
EXTT7=
EXTT8=
EXTT9=
EXTT10=
EXTT11=
PLAYORDER=
